<svg id="Calque_1" data-name="Calque 1" xmlns="http://www.w3.org/2000/svg" viewBox="0 0 64.13 42.36"><defs><style>.cls-1{fill:#f4a434;}.cls-2{fill:#008f4c;}</style></defs><path class="cls-1" d="M33.62,53.22" transform="translate(-17.34 -24.43)"/><path class="cls-1" d="M30.87,50.82A13.91,13.91,0,0,1,57.8,54.88c0,.22,0,.44,0,.66A1.34,1.34,0,0,1,56.59,57H46.91" transform="translate(-17.34 -24.43)"/><path class="cls-1" d="M36.29,32a7.62,7.62,0,1,1,7.55,7.67h-.08A7.58,7.58,0,0,1,36.29,32Z" transform="translate(-17.34 -24.43)"/><path class="cls-1" d="M55,43.26a9.8,9.8,0,0,1,7.91-.95A10,10,0,0,1,70,51.59c0,1.1-.47,1.62-1.56,1.62h-7.6c-.32,0-.55,0-.63-.43a16.22,16.22,0,0,0-5.08-9.32Z" transform="translate(-17.34 -24.43)"/><path class="cls-1" d="M54.33,34.64A5.67,5.67,0,1,1,60,40.32H59.9A5.68,5.68,0,0,1,54.33,34.64Z" transform="translate(-17.34 -24.43)"/><path class="cls-2" d="M30,49.63a110.63,110.63,0,0,0,18.81,5C64.18,57.48,75.33,57,78,55a1,1,0,0,0,.32-.32s0-.83-2.5-2.38a1.56,1.56,0,0,1,1.67-2.64c2.91,1.85,4.19,3.65,3.91,5.5a3.6,3.6,0,0,1-1.6,2.38c-2.15,1.53-6.5,2.16-11.79,2.16a115.33,115.33,0,0,1-19.77-2,106.7,106.7,0,0,1-21.44-6c-6.52-2.75-9.48-5.4-9.07-8.1.45-2.88,4.41-3.67,5.72-3.92a1.55,1.55,0,1,1,.6,3c-2.89.57-3.24,1.34-3.24,1.34-.05.31,1,2,6.3,4.37M79.37,61.82a1.55,1.55,0,0,1,.07,2.2c-1.84,2-6.57,2.76-12.51,2.76a114.7,114.7,0,0,1-19.75-2c-14.43-2.65-26.28-7.09-29.5-11.05a1.56,1.56,0,1,1,2.42-2c2.31,2.85,12.55,7.18,27.64,10,17.23,3.16,27.75,2,29.43.19A1.55,1.55,0,0,1,79.37,61.82Z" transform="translate(-17.34 -24.43)"/></svg>