<?xml version="1.0" encoding="utf-8"?>
<!-- Generator: Adobe Illustrator 15.0.0, SVG Export Plug-In . SVG Version: 6.00 Build 0)  -->
<!DOCTYPE svg PUBLIC "-//W3C//DTD SVG 1.1//EN" "http://www.w3.org/Graphics/SVG/1.1/DTD/svg11.dtd">
<svg version="1.1" id="Calque_1" xmlns="http://www.w3.org/2000/svg" xmlns:xlink="http://www.w3.org/1999/xlink" x="0px" y="0px"
	 width="337.277px" height="369.981px" viewBox="86.496 0.012 337.277 369.981"
	 enable-background="new 86.496 0.012 337.277 369.981" xml:space="preserve">
<rect x="326.189" y="6.408" fill="#F7A634" width="25.25" height="66.5"/>
<rect x="158.62" y="5.75" fill="#F7A634" width="25.25" height="66.5"/>
<rect x="94.544" y="109.553" fill="#0A934C" stroke="#FFFFFF" stroke-miterlimit="10" width="320.667" height="249.667"/>
<path fill="#FFFFFF" stroke="#FFFFFF" stroke-miterlimit="10" d="M269.509,79.304h-10.795v-10.8h10.795V79.304z M251.515,79.304
	H240.72v-10.8h10.795V79.304z"/>
<path fill="#FFFFFF" stroke="#FFFFFF" stroke-width="3" stroke-miterlimit="10" d="M411.442,357.128H98.791V109.553H87.996v258.94
	h334.277v-258.94h-10.831V357.128L411.442,357.128z"/>
<path fill="#FFFFFF" stroke="#FFFFFF" stroke-miterlimit="10" d="M183.415,79.304l8.777-8.783V8.778l-8.777-8.766h-23.982
	l-8.783,8.766v61.743l8.783,8.783H183.415L183.415,79.304z M161.445,13.267l2.455-2.455h15.042l2.455,2.455v52.799l-2.455,2.455
	H163.9l-2.455-2.455V13.267L161.445,13.267z"/>
<path fill="#FFFFFF" stroke="#FFFFFF" stroke-miterlimit="10" d="M350.802,79.304l8.783-8.783V8.778l-8.783-8.766h-23.982
	l-8.776,8.766v61.743l8.776,8.783H350.802L350.802,79.304z M328.837,13.267l2.455-2.455h15.043l2.455,2.455v52.799l-2.455,2.455
	h-15.043l-2.455-2.455V13.267z"/>
<path fill="#FFFFFF" stroke="#FFFFFF" stroke-miterlimit="10" d="M368.581,34.252v10.795h42.861v57.708H98.791V45.047h42.862V34.252
	H87.996v79.298h334.277V34.252H368.581z"/>
<path fill="#FFFFFF" stroke="#FFFFFF" stroke-miterlimit="10" d="M201.178,34.252h107.868v10.795H201.178V34.252z"/>
<path fill="#FFFFFF" stroke="#000000" stroke-width="10" stroke-miterlimit="10" d="M168.484,160.645
	c-5.153,4.458-5.748,8.718-5.351,41.023l0.297,27.743l27.546,12.286l27.546,12.287l-0.297,7.036l-0.297,7.036h-8.422h-8.423
	l-0.296-5.551l-0.298-5.55l-18.033-7.926c-9.909-4.359-18.431-7.63-18.827-7.233c-0.496,0.396-0.693,11.79-0.496,25.365
	c0.297,24.078,0.396,24.772,2.675,28.537c4.063,6.44,4.757,6.541,43.698,6.541c38.348,0,39.931-0.198,43.201-5.945l1.883-3.171
	l0.496,4.359l0.494,4.262h41.815h41.715l2.675-2.477c5.353-4.955,5.451-5.848,5.451-33.89v-26.059l-7.63-4.756l-7.63-4.856
	l7.63-4.855l7.63-4.956v-26.256c0-28.438-0.199-29.825-5.548-33.987c-2.578-2.081-3.569-2.081-44.591-2.081h-42.012v3.864v3.865
	l-3.865-3.865l-3.864-3.864h-37.653h-37.752L168.484,160.645z M218.225,197.01l0.297,6.242l4.657,1.981
	c2.577,1.092,10.8,4.758,18.332,8.025l13.575,5.947v5.747v5.746l-27.25-12.088l-27.149-11.99l-0.099-7.531
	c0-4.161,0.297-7.827,0.694-8.225c0.396-0.396,4.26-0.494,8.718-0.396l7.928,0.299L218.225,197.01z M309.979,191.857
	c0.297,0.893,0.595,4.361,0.595,7.729v6.243l-8.422,5.551c-4.657,3.169-8.621,5.646-8.919,5.646c-0.297,0-0.495-6.044-0.495-13.376
	v-13.378h8.323C307.7,190.272,309.483,190.57,309.979,191.857z M303.937,248.535l6.638,4.457v6.243c0,9.414,0.098,9.314-9.513,9.314
	h-8.323v-13.376v-13.477l2.279,1.188C296.207,243.58,300.167,246.059,303.937,248.535z"/>
</svg>
