<?xml version="1.0" encoding="utf-8"?>
<!-- Generator: Adobe Illustrator 15.0.0, SVG Export Plug-In . SVG Version: 6.00 Build 0)  -->
<!DOCTYPE svg PUBLIC "-//W3C//DTD SVG 1.1//EN" "http://www.w3.org/Graphics/SVG/1.1/DTD/svg11.dtd">
<svg version="1.1" id="Calque_1" xmlns="http://www.w3.org/2000/svg" xmlns:xlink="http://www.w3.org/1999/xlink" x="0px" y="0px"
	 width="337.277px" height="369.981px" viewBox="86.496 0.012 337.277 369.981"
	 enable-background="new 86.496 0.012 337.277 369.981" xml:space="preserve">
<rect x="325.933" y="7.158" fill="#E2D421" width="25.25" height="66.5"/>
<rect x="158.363" y="6.5" fill="#E2D421" width="25.25" height="66.5"/>
<rect x="94.287" y="110.303" fill="#2D8CCC" stroke="#FFFFFF" stroke-miterlimit="10" width="320.667" height="249.667"/>
<path fill="#FFFFFF" stroke="#FFFFFF" stroke-miterlimit="10" d="M269.252,80.054h-10.795v-10.8h10.795V80.054z M251.258,80.054
	h-10.795v-10.8h10.795V80.054z"/>
<path fill="#FFFFFF" stroke="#FFFFFF" stroke-width="3" stroke-miterlimit="10" d="M411.186,357.878H98.534V110.303H87.739v258.94
	h334.277v-258.94h-10.831V357.878L411.186,357.878z"/>
<path fill="#FFFFFF" stroke="#FFFFFF" stroke-miterlimit="10" d="M183.158,80.054l8.777-8.783V9.528l-8.777-8.766h-23.982
	l-8.783,8.766v61.743l8.783,8.783H183.158L183.158,80.054z M161.188,14.017l2.455-2.455h15.042l2.455,2.455v52.799l-2.455,2.455
	h-15.042l-2.455-2.455V14.017L161.188,14.017z"/>
<path fill="#FFFFFF" stroke="#FFFFFF" stroke-miterlimit="10" d="M350.545,80.054l8.783-8.783V9.528l-8.783-8.766h-23.982
	l-8.776,8.766v61.743l8.776,8.783H350.545L350.545,80.054z M328.58,14.017l2.455-2.455h15.043l2.455,2.455v52.799l-2.455,2.455
	h-15.043l-2.455-2.455V14.017z"/>
<path fill="#FFFFFF" stroke="#FFFFFF" stroke-miterlimit="10" d="M368.324,35.002v10.795h42.861v57.708H98.534V45.797h42.862V35.002
	H87.739V114.3h334.277V35.002H368.324z"/>
<path fill="#FFFFFF" stroke="#FFFFFF" stroke-miterlimit="10" d="M200.921,35.002h107.868v10.795H200.921V35.002z"/>
<path fill="#FFFFFF" stroke="#000000" stroke-width="10" stroke-miterlimit="10" d="M168.227,161.395
	c-5.153,4.458-5.748,8.719-5.351,41.023l0.297,27.743l27.546,12.286l27.546,12.287l-0.297,7.036l-0.297,7.036h-8.422h-8.423
	l-0.296-5.551l-0.298-5.55l-18.033-7.926c-9.909-4.359-18.431-7.63-18.827-7.233c-0.496,0.396-0.693,11.79-0.496,25.365
	c0.297,24.078,0.396,24.772,2.675,28.537c4.063,6.44,4.757,6.541,43.698,6.541c38.348,0,39.931-0.198,43.201-5.945l1.883-3.171
	l0.496,4.359l0.494,4.262h41.815h41.715l2.675-2.477c5.353-4.955,5.451-5.848,5.451-33.89v-26.059l-7.63-4.756l-7.63-4.856
	l7.63-4.855l7.63-4.956v-26.256c0-28.438-0.199-29.825-5.548-33.987c-2.578-2.081-3.569-2.081-44.591-2.081h-42.012v3.864v3.865
	l-3.865-3.865l-3.864-3.864h-37.653h-37.752L168.227,161.395z M217.968,197.76l0.297,6.242l4.657,1.981
	c2.577,1.092,10.8,4.758,18.332,8.025l13.575,5.947v5.747v5.746l-27.25-12.088l-27.149-11.99l-0.099-7.531
	c0-4.161,0.297-7.827,0.694-8.225c0.396-0.396,4.26-0.494,8.718-0.396l7.928,0.299L217.968,197.76z M309.723,192.607
	c0.297,0.893,0.595,4.361,0.595,7.729v6.243l-8.422,5.551c-4.657,3.169-8.621,5.646-8.919,5.646c-0.297,0-0.495-6.044-0.495-13.376
	v-13.378h8.323C307.443,191.022,309.227,191.32,309.723,192.607z M303.68,249.285l6.638,4.457v6.243
	c0,9.414,0.098,9.314-9.513,9.314h-8.323v-13.376v-13.477l2.279,1.188C295.95,244.33,299.91,246.809,303.68,249.285z"/>
</svg>
