<?xml version="1.0" encoding="utf-8"?>
<!-- Generator: Adobe Illustrator 15.0.0, SVG Export Plug-In . SVG Version: 6.00 Build 0)  -->
<!DOCTYPE svg PUBLIC "-//W3C//DTD SVG 1.1//EN" "http://www.w3.org/Graphics/SVG/1.1/DTD/svg11.dtd">
<svg version="1.1" id="Calque_1" xmlns="http://www.w3.org/2000/svg" xmlns:xlink="http://www.w3.org/1999/xlink" x="0px" y="0px"
	 width="127.758px" height="127.759px" viewBox="0 0 127.758 127.759" enable-background="new 0 0 127.758 127.759"
	 xml:space="preserve">
<circle fill="#010101" cx="63.879" cy="63.879" r="61.613"/>
<path fill="#010101" d="M2.266,63.935l17.522-12.732L12.75,29.498C5.892,39.65,2.24,51.628,2.266,63.879V63.935z"/>
<path fill="#010101" d="M43.704,5.656l20.268,14.74l20.157-14.74c-13.063-4.521-27.269-4.521-40.332,0H43.704z"/>
<path fill="#010101" d="M37.163,102.424l-21.962-0.755c7.107,9.143,16.638,16.107,27.509,20.102L37.163,102.424z"/>
<path fill="#010101" d="M85.032,121.771c10.869-3.994,20.4-10.959,27.508-20.102l-21.963,0.755L85.032,121.771z"/>
<path fill="#010101" d="M107.823,51.202l17.651,12.898l0,0c0.065-12.389-3.614-24.508-10.558-34.769L107.823,51.202z"/>
<path fill="#010101" d="M63.879,39.816L39.448,57.541l9.342,28.706h30.18l9.323-28.706L63.879,39.816z"/>
<path fill="#010101" d="M78.969,88.514H48.79c-0.984,0.006-1.857-0.629-2.156-1.566l-9.323-28.706
	c-0.322-0.92-0.008-1.942,0.774-2.524l24.413-17.743c0.8-0.569,1.872-0.569,2.671,0l24.506,17.743
	c0.793,0.574,1.127,1.592,0.829,2.524L81.18,86.947c-0.303,0.934-1.174,1.566-2.155,1.566H78.969z M50.429,83.98h26.882
	l8.311-25.573l-21.742-15.81l-21.76,15.81L50.429,83.98z"/>
<path fill="#010101" d="M63.879,127.759C28.6,127.759,0,99.158,0,63.879S28.6,0,63.879,0c35.279,0,63.879,28.6,63.879,63.879l0,0
	C127.718,99.142,99.142,127.718,63.879,127.759z M63.879,4.532c-32.776,0-59.347,26.57-59.347,59.347s26.571,59.347,59.347,59.347
	s59.347-26.57,59.347-59.347l0,0C123.186,31.119,96.639,4.572,63.879,4.532z"/>
<path fill="#010101" d="M125.161,66.053c-0.48-0.004-0.949-0.151-1.345-0.424l-17.319-12.603c-0.793-0.574-1.127-1.592-0.829-2.523
	l6.891-21.171c0.392-1.19,1.675-1.838,2.865-1.446s1.838,1.675,1.446,2.865l-6.375,19.586l16.029,11.626
	c1.007,0.727,1.234,2.132,0.507,3.139c-0.003,0.004-0.006,0.008-0.009,0.012c-0.421,0.599-1.111,0.951-1.843,0.939H125.161z"/>
<path fill="#010101" d="M88.292,59.807c-1.251,0.001-2.267-1.014-2.267-2.265c-0.001-0.982,0.632-1.854,1.566-2.157l19.531-6.338
	c1.189-0.387,2.469,0.265,2.855,1.455c0.387,1.191-0.266,2.47-1.456,2.856l-19.53,6.338C88.766,59.768,88.53,59.805,88.292,59.807z"
	/>
<path fill="#010101" d="M85.142,123.668c-0.208,0.027-0.419,0.027-0.626,0c-1.2-0.348-1.893-1.6-1.549-2.801l5.527-18.996
	c0.276-0.94,1.121-1.601,2.102-1.64l21.428-0.737c1.252-0.045,2.303,0.932,2.35,2.184c0.045,1.252-0.932,2.304-2.184,2.35
	l-19.789,0.682l-4.992,17.393c-0.279,0.97-1.166,1.639-2.175,1.641L85.142,123.668z"/>
<path fill="#010101" d="M90.577,104.69c-0.73,0.008-1.419-0.344-1.842-0.939L77.127,87.573c-0.732-1.018-0.502-2.437,0.516-3.169
	s2.436-0.502,3.169,0.516l0,0l11.626,16.196c0.732,1.002,0.515,2.408-0.488,3.141c-0.393,0.287-0.867,0.439-1.354,0.434H90.577z"/>
<path fill="#010101" d="M37.163,104.69h-0.921l-20.709-0.737c-1.243-0.148-2.13-1.276-1.981-2.52c0.132-1.1,1.04-1.943,2.147-1.994
	l20.709,0.719h0.866c1.254,0.05,2.234,1.103,2.192,2.358c-0.05,1.215-1.05,2.175-2.266,2.174H37.163z"/>
<path fill="#010101" d="M42.359,122.82c-1.009-0.001-1.896-0.67-2.174-1.64l-5.196-18.148c-0.163-0.633-0.042-1.306,0.332-1.843
	l11.626-16.195c0.73-1.008,2.138-1.238,3.151-0.516c1.016,0.731,1.254,2.145,0.533,3.169L39.577,102.94l4.883,17.062
	c0.344,1.2-0.348,2.452-1.548,2.8c-0.208,0.027-0.419,0.027-0.626,0L42.359,122.82z"/>
<path fill="#010101" d="M2.745,65.851c-1.241,0.021-2.265-0.967-2.287-2.208c-0.013-0.748,0.347-1.454,0.96-1.883l15.717-11.423
	l-6.357-19.586c-0.475-1.158,0.079-2.482,1.236-2.957c1.158-0.476,2.482,0.078,2.957,1.236c0.041,0.098,0.074,0.199,0.1,0.302
	l6.873,21.152c0.313,0.928-0.016,1.952-0.811,2.523l-17.062,12.4c-0.386,0.279-0.851,0.428-1.327,0.424V65.851z"/>
<path fill="#010101" d="M39.448,59.807c-0.231,0-0.461-0.037-0.682-0.11l-19.66-6.412c-1.208-0.325-1.924-1.568-1.599-2.777
	c0.325-1.208,1.568-1.924,2.777-1.599c0.069,0.019,0.137,0.04,0.204,0.065l19.66,6.338c1.19,0.386,1.843,1.664,1.456,2.854
	c-0.303,0.935-1.174,1.567-2.156,1.567V59.807z"/>
<path fill="#010101" d="M63.879,22.57c-0.484,0-0.955-0.155-1.346-0.442L42.709,7.72c-1.018-0.738-1.244-2.161-0.508-3.179
	c0.738-1.018,2.162-1.244,3.18-0.507l18.424,13.45L82.231,4.071c1.018-0.737,2.44-0.511,3.178,0.507
	c0.738,1.018,0.512,2.44-0.506,3.179l0,0L65.114,22.128c-0.384,0.285-0.849,0.439-1.326,0.442H63.879z"/>
<path fill="#010101" d="M63.879,42.063c-1.244,0-2.256-1.003-2.266-2.247V20.304c0-1.252,1.016-2.266,2.268-2.264
	c1.25,0.001,2.264,1.014,2.264,2.264v19.513C66.135,41.061,65.124,42.063,63.879,42.063z"/>
<circle fill="#FFFFFF" cx="63.865" cy="63.879" r="62.442"/>
<path fill="#010101" d="M63.879,1.437C29.383,1.427,1.41,29.383,1.4,63.879c-0.01,34.496,27.946,62.469,62.442,62.479
	c34.496,0.01,62.469-27.946,62.479-62.442c0-0.013,0-0.024,0-0.037C126.322,29.393,98.366,1.437,63.879,1.437z M120.665,45.436
	L120.665,45.436c-2.719,1.92-5.287,4.045-7.683,6.356l-17.56-14.74c0.01-0.079,0.01-0.159,0-0.239
	c-1.316-6.19-3.486-12.168-6.448-17.762l4.938-6.56l-0.664-0.516c12.98,7.38,22.747,19.327,27.398,33.516L120.665,45.436z
	 M110.125,76.924L110.125,76.924L92.53,83.87c-4.469-5.274-9.617-9.934-15.311-13.855l1.4-23.123
	c5.747-1.696,11.093-4.535,15.717-8.347l17.447,14.739c-0.884,2.322-2.247,18.738-1.731,23.584L110.125,76.924z M58.942,102.719
	L58.942,102.719l-17.725,11.185L24.874,99.347l-4.827-22.423c5.297-1.804,10.273-4.44,14.74-7.813l19.88,13.45
	c-0.331,4.533,2.819,16.583,4.201,20.065L58.942,102.719z M26.882,21.648L26.882,21.648l18.996-11.055l15.68,5.841
	c-1.529,3.685-5.527,13.93-4.789,16.877c0.051,0.154,0.119,0.303,0.202,0.442L35.763,45.049c-4.287-2.811-9.081-4.757-14.113-5.73
	l5.232-17.762V21.648z M55.404,80.72L55.404,80.72L35.8,67.527c0.995-3.686,1.953-17.136,1.068-20.895l21.263-11.35
	c3.776,4.072,14.187,10.632,18.535,11.59L75.34,69.517C71.231,70.052,58.094,77.716,55.404,80.72z M92.254,11.386L92.254,11.386
	l-4.81,6.394c-3.685-1.234-20.268-3.924-24.689-2.911L46.45,8.807V6.743C61.723,2.1,78.221,3.772,92.254,11.386L92.254,11.386z
	 M22.46,20.912L22.46,20.912l2.396,0.755l-5.509,18.72C15.661,43.888,9.82,54.888,8.623,58.48l-4.275,0.7
	c1.135-14.558,7.581-28.19,18.112-38.306V20.912z M4.219,61.171L4.219,61.171l4.385-0.719c0.939,4.146,7.075,13.469,9.47,15.975
	l4.754,22.109l-6.375,1.438C8.506,89.593,4.206,76.879,4.219,63.806c0-0.903,0-1.843,0-2.709V61.171z M41.899,119.394
	L41.899,119.394v-3.685l18.424-11.608c3.869,1.843,16.749,2.911,20.747,2.985l5.527,12.123c-14.256,5.861-30.233,5.947-44.552,0.24
	L41.899,119.394z M88.2,118.417L88.2,118.417l-5.343-11.939c3.206-2.967,9.839-16.896,10.3-20.802l17.67-6.983
	c2.613,2.755,5.395,5.346,8.328,7.757C113.299,100.669,102.224,112.107,88.2,118.417L88.2,118.417z"/>
</svg>
