<svg id="Calque_1" data-name="Calque 1" xmlns="http://www.w3.org/2000/svg" xmlns:xlink="http://www.w3.org/1999/xlink" viewBox="0 0 200 200"><defs><style>.cls-1,.cls-9{fill:none;}.cls-2{fill:#010101;}.cls-3{fill:#2f8ccc;}.cls-4{fill:#e2d41d;}.cls-5{fill:#e1eaf6;}.cls-6{fill:#919090;}.cls-7{fill:#fff;}.cls-8{fill:#0c0d1a;fill-rule:evenodd;}.cls-9{stroke:#2f8ccc;stroke-miterlimit:10;stroke-width:0.75px;}.cls-10{fill:#e5da1a;}.cls-11{fill:#dacb25;}.cls-12{fill:#f0e254;}.cls-13{clip-path:url(#clip-path);}.cls-14{fill:#f0f0ef;}</style><clipPath id="clip-path"><circle class="cls-1" cx="100" cy="81.75" r="33.89"/></clipPath></defs><path class="cls-2" d="M42.41,22.36a4.91,4.91,0,0,0-4.91,4.92V117a40.3,40.3,0,0,0,24.28,37l35.07,15.22a7.91,7.91,0,0,0,6.29,0L138.21,154a40.33,40.33,0,0,0,24.29-37V27.28a4.92,4.92,0,0,0-4.92-4.92Z"/><path class="cls-2" d="M101,161.59a2.47,2.47,0,0,1-2,0l-34.1-14.8a32.19,32.19,0,0,1-11.39-8.28,33.12,33.12,0,0,1-8.14-22V32.72a2.46,2.46,0,0,1,2.46-2.46H152.14a2.46,2.46,0,0,1,2.46,2.46v83.82a33.15,33.15,0,0,1-8.14,22,32.29,32.29,0,0,1-11.39,8.27Z"/><path class="cls-3" d="M100,171.13a9.2,9.2,0,0,1-3.64-.75L61.29,155.16a41.57,41.57,0,0,1-25-38.14V27.28a6.15,6.15,0,0,1,6.14-6.15H157.58a6.16,6.16,0,0,1,6.15,6.15V117a41.59,41.59,0,0,1-25,38.14l-35.07,15.22A9.18,9.18,0,0,1,100,171.13ZM42.41,23.59a3.7,3.7,0,0,0-3.69,3.69V117A39.14,39.14,0,0,0,62.27,152.9l35.07,15.23a6.71,6.71,0,0,0,5.31,0l35.07-15.23A39.1,39.1,0,0,0,161.27,117V27.28a3.7,3.7,0,0,0-3.69-3.69Z"/><path class="cls-4" d="M100,163a3.56,3.56,0,0,1-1.47-.31l-34.1-14.79a33.56,33.56,0,0,1-11.83-8.6,34.27,34.27,0,0,1-8.44-22.78V32.72A3.69,3.69,0,0,1,47.85,29H152.14a3.69,3.69,0,0,1,3.69,3.69v83.82a34.26,34.26,0,0,1-8.45,22.79,33.53,33.53,0,0,1-11.82,8.59l-34.1,14.79A3.51,3.51,0,0,1,100,163Zm1-1.43ZM47.85,31.49a1.23,1.23,0,0,0-1.23,1.23v83.82a31.83,31.83,0,0,0,7.83,21.16,31,31,0,0,0,11,8l34.1,14.8a1.28,1.28,0,0,0,1,0l34.09-14.8a31.07,31.07,0,0,0,11-8,31.83,31.83,0,0,0,7.83-21.16V32.72a1.23,1.23,0,0,0-1.23-1.23Z"/><circle class="cls-5" cx="100" cy="81.75" r="33.44"/><path class="cls-2" d="M66.56,81.78l9.51-6.91L72.25,63.09a33.21,33.21,0,0,0-5.69,18.66Z"/><path class="cls-2" d="M89.05,50.15l11,8,10.94-8a33.47,33.47,0,0,0-21.89,0Z"/><path class="cls-2" d="M85.5,102.67l-11.92-.41a33.58,33.58,0,0,0,14.93,10.91Z"/><path class="cls-2" d="M111.48,113.17a33.58,33.58,0,0,0,14.93-10.91l-11.92.41Z"/><path class="cls-2" d="M123.85,74.87l9.58,7h0A33.36,33.36,0,0,0,127.7,63Z"/><path class="cls-2" d="M100,68.69,86.74,78.31l5.07,15.58h16.38l5.06-15.58Z"/><path class="cls-6" d="M108.19,95.12H91.81a1.22,1.22,0,0,1-1.17-.85L85.58,78.69A1.21,1.21,0,0,1,86,77.32l13.25-9.63a1.25,1.25,0,0,1,1.45,0L114,77.32a1.23,1.23,0,0,1,.45,1.37l-5.06,15.58a1.23,1.23,0,0,1-1.17.85ZM92.7,92.66h14.59l4.51-13.88L100,70.2,88.19,78.78Z"/><path class="cls-6" d="M100,116.42a34.67,34.67,0,1,1,34.67-34.67A34.71,34.71,0,0,1,100,116.42Zm0-66.88a32.21,32.21,0,1,0,32.21,32.21A32.25,32.25,0,0,0,100,49.54Z"/><path class="cls-6" d="M133.26,82.93a1.31,1.31,0,0,1-.73-.23l-9.4-6.84a1.23,1.23,0,0,1-.45-1.37L126.42,63a1.23,1.23,0,0,1,2.34.77L125.3,74.4,134,80.71a1.22,1.22,0,0,1,.27,1.71,1.2,1.2,0,0,1-1,.51Z"/><path class="cls-6" d="M113.25,79.54a1.23,1.23,0,0,1-.38-2.4l10.6-3.44a1.23,1.23,0,1,1,.76,2.34l-10.6,3.44A1.31,1.31,0,0,1,113.25,79.54Z"/><path class="cls-6" d="M111.54,114.2a1.32,1.32,0,0,1-.34,0,1.23,1.23,0,0,1-.84-1.52l3-10.31a1.24,1.24,0,0,1,1.14-.89l11.63-.4a1.23,1.23,0,0,1,.09,2.46l-10.74.37-2.71,9.44a1.23,1.23,0,0,1-1.18.89Z"/><path class="cls-6" d="M114.49,103.9a1.21,1.21,0,0,1-1-.51l-6.3-8.78a1.23,1.23,0,1,1,2-1.44l6.31,8.79a1.22,1.22,0,0,1-1,1.94Z"/><path class="cls-6" d="M85.5,103.9H85l-11.24-.4a1.23,1.23,0,0,1,.09-2.45l11.24.39h.47a1.24,1.24,0,0,1,1.19,1.28,1.23,1.23,0,0,1-1.23,1.18Z"/><path class="cls-6" d="M88.32,113.74a1.23,1.23,0,0,1-1.18-.89L84.32,103A1.22,1.22,0,0,1,84.5,102l6.31-8.79a1.23,1.23,0,0,1,1.71-.28,1.24,1.24,0,0,1,.29,1.72l-6,8.3,2.65,9.26a1.23,1.23,0,0,1-.84,1.52,1.33,1.33,0,0,1-.34,0Z"/><path class="cls-6" d="M66.82,82.82a1.22,1.22,0,0,1-.72-2.22l8.53-6.2L71.18,63.77A1.23,1.23,0,1,1,73.51,63l3.73,11.48a1.21,1.21,0,0,1-.44,1.37l-9.26,6.73a1.21,1.21,0,0,1-.72.23Z"/><path class="cls-6" d="M86.74,79.54a1.19,1.19,0,0,1-.37-.06L75.7,76a1.23,1.23,0,1,1,.75-2.34l10.67,3.44a1.23,1.23,0,0,1-.38,2.4Z"/><path class="cls-6" d="M100,59.33a1.23,1.23,0,0,1-.73-.24L88.51,51.27a1.23,1.23,0,0,1,1.45-2l10,7.3,10-7.28a1.23,1.23,0,0,1,1.45,2l-10.74,7.8a1.22,1.22,0,0,1-.72.24Z"/><path class="cls-6" d="M100,69.91a1.23,1.23,0,0,1-1.23-1.22V58.1a1.23,1.23,0,0,1,2.46,0V68.69A1.23,1.23,0,0,1,100,69.91Z"/><path class="cls-4" d="M101.33,134.1l1.77,3.59a1.49,1.49,0,0,0,1.12.82l4,.57a1.49,1.49,0,0,1,.83,2.54l-2.87,2.79a1.5,1.5,0,0,0-.43,1.32l.68,3.94a1.49,1.49,0,0,1-2.16,1.57l-3.54-1.86a1.49,1.49,0,0,0-1.39,0l-3.54,1.86a1.49,1.49,0,0,1-2.16-1.57l.68-3.94a1.5,1.5,0,0,0-.43-1.32L91,141.62a1.49,1.49,0,0,1,.82-2.54l4-.57a1.49,1.49,0,0,0,1.12-.82l1.77-3.59A1.49,1.49,0,0,1,101.33,134.1Z"/><path class="cls-4" d="M124.66,132.44l1.27,2.58a1.05,1.05,0,0,0,.8.58l2.84.41a1.07,1.07,0,0,1,.59,1.82l-2.06,2a1.08,1.08,0,0,0-.3.95l.48,2.83a1.06,1.06,0,0,1-1.54,1.12l-2.54-1.34a1.1,1.1,0,0,0-1,0l-2.54,1.34a1.06,1.06,0,0,1-1.54-1.12l.48-2.83a1.08,1.08,0,0,0-.3-.95l-2.06-2a1.07,1.07,0,0,1,.59-1.82l2.84-.41a1.05,1.05,0,0,0,.8-.58l1.27-2.58a1.07,1.07,0,0,1,1.92,0Z"/><path class="cls-4" d="M77.29,132.44,78.56,135a1.05,1.05,0,0,0,.8.58l2.84.41a1.07,1.07,0,0,1,.59,1.82l-2.06,2a1.08,1.08,0,0,0-.3.95l.48,2.83a1.06,1.06,0,0,1-1.54,1.12l-2.54-1.34a1.08,1.08,0,0,0-1,0l-2.54,1.34a1.07,1.07,0,0,1-1.55-1.12l.48-2.83a1.08,1.08,0,0,0-.3-.95l-2.06-2a1.07,1.07,0,0,1,.59-1.82l2.84-.41a1.09,1.09,0,0,0,.81-.58l1.27-2.58A1.07,1.07,0,0,1,77.29,132.44Z"/><circle class="cls-7" cx="100" cy="81.75" r="33.89" transform="translate(15.96 179.84) rotate(-88.68)"/><path class="cls-8" d="M100,47.86a33.9,33.9,0,1,0,33.89,33.89A33.89,33.89,0,0,0,100,47.86Zm30.82,23.88h0a35.45,35.45,0,0,0-4.17,3.45l-9.53-8a.57.57,0,0,0,0-.13,37.12,37.12,0,0,0-3.5-9.64l2.68-3.56-.36-.28a32.61,32.61,0,0,1,14.87,18.19ZM125.1,88.83h0l-9.55,3.77a42.5,42.5,0,0,0-8.31-7.52L108,72.53A24.15,24.15,0,0,0,116.53,68L126,76c-.48,1.26-1.22,10.17-.94,12.8Zm-27.78,14h0l-9.62,6.07L78.83,101,76.21,88.83a28.55,28.55,0,0,0,8-4.24L95,91.89c-.18,2.46,1.53,9,2.28,10.89Zm-17.4-44h0l10.31-6L98.74,56c-.83,2-3,7.55-2.6,9.15a1.28,1.28,0,0,0,.11.24L84.74,71.53a21.37,21.37,0,0,0-7.66-3.11l2.84-9.64ZM95.4,90.89h0L84.76,83.73c.54-2,1.06-9.3.58-11.34l11.54-6.16c2.05,2.21,7.7,5.77,10.06,6.29l-.72,12.29c-2.23.29-9.36,4.45-10.82,6.08Zm20-37.63h0l-2.61,3.47c-2-.67-11-2.13-13.4-1.58l-8.85-3.29V50.74a32.38,32.38,0,0,1,24.86,2.52ZM77.52,58.43h0l1.3.41L75.83,69c-2,1.9-5.17,7.87-5.82,9.82l-2.32.38a32.31,32.31,0,0,1,9.83-20.79Zm-9.9,21.85h0L70,79.89c.51,2.25,3.84,7.31,5.14,8.67l2.58,12-3.46.78a32.24,32.24,0,0,1-6.64-19.63c0-.49,0-1,0-1.47Zm20.45,31.6h0v-2l10-6.3c2.1,1,9.09,1.58,11.26,1.62l3,6.58a32.22,32.22,0,0,1-24.18.13Zm25.13-.53h0l-2.9-6.48c1.74-1.61,5.34-9.17,5.59-11.29l9.59-3.79A50,50,0,0,0,130,94,32.66,32.66,0,0,1,113.2,111.35Z"/><path class="cls-9" d="M124.66,132.44l1.27,2.58a1.05,1.05,0,0,0,.8.58l2.84.41a1.07,1.07,0,0,1,.59,1.82l-2.06,2a1.08,1.08,0,0,0-.3.95l.48,2.83a1.06,1.06,0,0,1-1.54,1.12l-2.54-1.34a1.1,1.1,0,0,0-1,0l-2.54,1.34a1.06,1.06,0,0,1-1.54-1.12l.48-2.83a1.08,1.08,0,0,0-.3-.95l-2.06-2a1.07,1.07,0,0,1,.59-1.82l2.84-.41a1.05,1.05,0,0,0,.8-.58l1.27-2.58a1.07,1.07,0,0,1,1.92,0Z"/><path class="cls-9" d="M77.29,132.44,78.56,135a1.05,1.05,0,0,0,.8.58l2.84.41a1.07,1.07,0,0,1,.59,1.82l-2.06,2a1.08,1.08,0,0,0-.3.95l.48,2.83a1.06,1.06,0,0,1-1.54,1.12l-2.54-1.34a1.08,1.08,0,0,0-1,0l-2.54,1.34a1.07,1.07,0,0,1-1.55-1.12l.48-2.83a1.08,1.08,0,0,0-.3-.95l-2.06-2a1.07,1.07,0,0,1,.59-1.82l2.84-.41a1.09,1.09,0,0,0,.81-.58l1.27-2.58A1.07,1.07,0,0,1,77.29,132.44Z"/><path class="cls-9" d="M101.33,134.1l1.77,3.59a1.49,1.49,0,0,0,1.12.82l4,.57a1.49,1.49,0,0,1,.83,2.54l-2.87,2.79a1.5,1.5,0,0,0-.43,1.32l.68,3.94a1.49,1.49,0,0,1-2.16,1.57l-3.54-1.86a1.49,1.49,0,0,0-1.39,0l-3.54,1.86a1.49,1.49,0,0,1-2.16-1.57l.68-3.94a1.5,1.5,0,0,0-.43-1.32L91,141.62a1.49,1.49,0,0,1,.82-2.54l4-.57a1.49,1.49,0,0,0,1.12-.82l1.77-3.59A1.49,1.49,0,0,1,101.33,134.1Z"/><circle class="cls-10" cx="100" cy="81.75" r="33.89"/><path class="cls-11" d="M117.73,52.84A33.91,33.91,0,0,1,71.43,100a33.9,33.9,0,1,0,46.3-47.15Z"/><path class="cls-12" d="M70.71,84.76a31.47,31.47,0,0,1,56.41-19.19,31.47,31.47,0,1,0-52.23,34.87A31.31,31.31,0,0,1,70.71,84.76Z"/><g class="cls-13"><path class="cls-7" d="M75.75,108.33,73.61,106a32.3,32.3,0,0,0-1.13-48.49l2-2.4a35.48,35.48,0,0,1,1.23,53.2Z"/><path class="cls-7" d="M126.51,108.33a35.45,35.45,0,0,1,1.23-53.2l2,2.4A32.33,32.33,0,0,0,128.65,106Z"/></g><path class="cls-14" d="M76.77,102.65c-.55.68-1.14,1.34-1.75,2a31.27,31.27,0,0,0,2.24,2.22,36.66,36.66,0,0,0,2.68-3.14C78.86,103.41,77.8,103.05,76.77,102.65Z"/><path class="cls-14" d="M126.09,103.36a32,32,0,0,1-7.36-15.67,33.73,33.73,0,0,1-2.42,3.71A35.37,35.37,0,0,0,124,105.71,31.7,31.7,0,0,0,126.09,103.36Z"/></svg>