<?xml version="1.0" encoding="utf-8"?>
<!-- Generator: Adobe Illustrator 15.0.0, SVG Export Plug-In . SVG Version: 6.00 Build 0)  -->
<!DOCTYPE svg PUBLIC "-//W3C//DTD SVG 1.1//EN" "http://www.w3.org/Graphics/SVG/1.1/DTD/svg11.dtd">
<svg version="1.1" id="Calque_1" xmlns="http://www.w3.org/2000/svg" xmlns:xlink="http://www.w3.org/1999/xlink" x="0px" y="0px"
	 width="127.758px" height="127.759px" viewBox="0 0 127.758 127.759" enable-background="new 0 0 127.758 127.759"
	 xml:space="preserve">
<circle fill="#010101" cx="63.879" cy="63.879" r="61.613"/>
<path fill="#010101" d="M2.266,63.935l17.522-12.732L12.75,29.498C5.892,39.65,2.24,51.628,2.266,63.879V63.935z"/>
<path fill="#010101" d="M43.704,5.656l20.268,14.74l20.157-14.74c-13.063-4.521-27.268-4.521-40.332,0H43.704z"/>
<path fill="#010101" d="M37.163,102.424l-21.962-0.755c7.107,9.143,16.638,16.107,27.508,20.102L37.163,102.424z"/>
<path fill="#010101" d="M85.032,121.771c10.869-3.994,20.4-10.959,27.508-20.102l-21.963,0.755L85.032,121.771z"/>
<path fill="#010101" d="M107.823,51.202l17.651,12.898l0,0c0.065-12.389-3.614-24.508-10.558-34.769L107.823,51.202z"/>
<path fill="#010101" d="M63.879,39.816L39.448,57.541l9.342,28.706h30.18l9.323-28.706L63.879,39.816z"/>
<path fill="#010101" d="M78.969,88.514H48.79c-0.984,0.006-1.857-0.629-2.156-1.566l-9.323-28.706
	c-0.322-0.92-0.008-1.942,0.774-2.524l24.413-17.743c0.799-0.569,1.872-0.569,2.671,0l24.506,17.743
	c0.793,0.574,1.127,1.592,0.829,2.524L81.18,86.947c-0.303,0.934-1.174,1.566-2.155,1.566H78.969z M50.429,83.98h26.882
	l8.311-25.573l-21.742-15.81l-21.76,15.81L50.429,83.98z"/>
<path fill="#919090" d="M63.879,4.532c-32.776,0-59.347,26.57-59.347,59.347s26.571,59.347,59.347,59.347
	s59.347-26.57,59.347-59.347l0,0C123.186,31.119,96.639,4.572,63.879,4.532z M63.879,127.759C28.6,127.759,0,99.158,0,63.879
	S28.6,0,63.879,0c35.279,0,63.879,28.6,63.879,63.879l0,0C127.718,99.142,99.142,127.718,63.879,127.759z"/>
<path fill="#010101" d="M88.292,59.807c-1.251,0.001-2.267-1.014-2.267-2.265c-0.001-0.982,0.632-1.854,1.566-2.157l19.531-6.338
	c1.189-0.387,2.469,0.265,2.855,1.455c0.387,1.191-0.266,2.47-1.456,2.856l-19.53,6.338C88.766,59.768,88.53,59.805,88.292,59.807z"
	/>
<path fill="#010101" d="M90.577,104.69c-0.73,0.008-1.419-0.344-1.842-0.939L77.127,87.573c-0.732-1.018-0.502-2.437,0.516-3.169
	s2.436-0.502,3.169,0.516l0,0l11.626,16.196c0.732,1.002,0.515,2.408-0.488,3.141c-0.393,0.287-0.867,0.439-1.354,0.434H90.577z"/>
<path fill="#010101" d="M39.448,59.807c-0.231,0-0.461-0.037-0.682-0.11l-19.66-6.412c-1.208-0.325-1.924-1.568-1.599-2.777
	c0.325-1.208,1.568-1.924,2.777-1.599c0.069,0.019,0.137,0.04,0.204,0.065l19.66,6.338c1.19,0.386,1.843,1.664,1.457,2.854
	c-0.303,0.935-1.174,1.567-2.157,1.567V59.807z"/>
<path fill="#010101" d="M63.879,42.063c-1.245,0-2.256-1.003-2.266-2.247V20.304c0.001-1.252,1.017-2.266,2.268-2.264
	c1.25,0.001,2.264,1.014,2.264,2.264v19.513C66.135,41.061,65.124,42.063,63.879,42.063z"/>
<circle fill="#010101" cx="63.865" cy="63.879" r="62.442"/>
<circle fill="#E5DA1E" cx="63.879" cy="63.879" r="62.442"/>
<path fill="#D9CA25" d="M96.547,10.612c18.567,29.085,10.042,67.715-19.043,86.282c-20.152,12.865-45.879,13.103-66.265,0.61
	c18.583,29.063,57.208,37.559,86.271,18.976c29.063-18.583,37.559-57.207,18.976-86.271c-5.083-7.948-11.899-14.643-19.938-19.579
	V10.612z"/>
<path fill="#F0E253" d="M9.913,69.425c0.002-32.023,25.965-57.981,57.988-57.979c17.996,0.002,34.972,8.359,45.947,22.621
	C97.879,6.31,62.432-3.247,34.674,12.721C6.916,28.689-2.641,64.138,13.328,91.896c1.284,2.232,2.716,4.377,4.286,6.42
	C12.553,89.529,9.896,79.564,9.913,69.425z"/>
<g>
	<path fill="#FFFFFF" d="M22.629,110.794l-3.775-3.637c21.811-21.373,21.417-55.881,1.31-79.065
		c-1.552-1.788-2.604-2.519-4.358-4.084l3.821-4.183c24.928,22.307,27.023,60.859,6.038,87.356
		C24.08,109.183,24.437,109.02,22.629,110.794L22.629,110.794z"/>
	<path fill="#FFFFFF" d="M107.991,108.239c-26.517-24.457-24.699-59.785-0.242-86.302c1.587-1.721,1.232-1.395,1.246-1.381
		l4.352,5.233c-22.496,22.159-23.018,52.252-1.811,77.402c0.373,0.573-1.447-1.107,0.373,0.573L107.991,108.239z"/>
</g>
<path fill="#F1F0EF" d="M22.72,102.957c-1.013,1.253-2.743,2.984-3.867,4.2c1.306,1.432,2.332,2.343,3.775,3.637
	c2.157-2.164,3.465-4.212,5.001-6.231C25.64,103.973,24.618,103.693,22.72,102.957z"/>
<path fill="#F1F0EF" d="M112.021,103.66c-5.673-6.53-11.985-16.405-14.556-27.265c-1.334,2.374-4.025,5.774-5.66,7.953
	c3.23,9.656,10.543,18.875,16.186,23.891C109.344,106.86,110.81,105.166,112.021,103.66z"/>
</svg>
