<svg xmlns="http://www.w3.org/2000/svg" xmlns:xlink="http://www.w3.org/1999/xlink" viewBox="0 0 152 152"><defs><style>.cls-1{isolation:isolate;}.cls-2{fill:#e2e1e1;}.cls-3,.cls-5{fill:none;stroke-miterlimit:10;stroke-width:2px;}.cls-3{stroke:#308ccc;stroke-dasharray:3.15 6.28;}.cls-4,.cls-7,.cls-8{fill:#010101;}.cls-5{stroke:#e2d41d;}.cls-6{opacity:0.12;mix-blend-mode:multiply;}.cls-16,.cls-7{opacity:0.2;}.cls-17,.cls-8{opacity:0.3;}.cls-9{fill:url(#radial-gradient);}.cls-10{fill:url(#linear-gradient);}.cls-11{fill:url(#linear-gradient-2);}.cls-12{fill:url(#radial-gradient-2);}.cls-13{fill:url(#radial-gradient-3);}.cls-14{fill:url(#radial-gradient-4);}.cls-15{fill:url(#radial-gradient-5);}.cls-16{fill:url(#linear-gradient-3);}.cls-17{fill:url(#linear-gradient-4);}.cls-18{fill:url(#linear-gradient-5);}.cls-19{fill:url(#linear-gradient-6);}.cls-20{fill:url(#linear-gradient-7);}.cls-21{fill:url(#radial-gradient-6);}.cls-22{fill:#fff;}</style><radialGradient id="radial-gradient" cx="76" cy="37.9" r="20.73" gradientTransform="translate(0 -14.55) scale(1 1.38)" gradientUnits="userSpaceOnUse"><stop offset="0" stop-color="#fff"/><stop offset="0.32" stop-color="#fcfcfe"/><stop offset="0.58" stop-color="#f2f3fa"/><stop offset="0.82" stop-color="#e1e5f4"/><stop offset="1" stop-color="#cfd5ed"/></radialGradient><linearGradient id="linear-gradient" x1="86.02" y1="60.88" x2="108.88" y2="60.88" gradientTransform="matrix(1, 0, 0, 1, 0, 0)" xlink:href="#radial-gradient"/><linearGradient id="linear-gradient-2" x1="43.12" y1="60.88" x2="65.98" y2="60.88" gradientUnits="userSpaceOnUse"><stop offset="0" stop-color="#cfd5ed"/><stop offset="0.18" stop-color="#e1e5f4"/><stop offset="0.42" stop-color="#f2f3fa"/><stop offset="0.68" stop-color="#fcfcfe"/><stop offset="1" stop-color="#fff"/></linearGradient><radialGradient id="radial-gradient-2" cx="76" cy="88.34" r="3.88" gradientTransform="translate(0 -43) scale(1 1.49)" gradientUnits="userSpaceOnUse"><stop offset="0" stop-color="#fff"/><stop offset="0.3" stop-color="#fcfcfe"/><stop offset="0.55" stop-color="#f2f3f9"/><stop offset="0.77" stop-color="#e1e4f2"/><stop offset="0.99" stop-color="#c9cfe8"/><stop offset="1" stop-color="#c8cee8"/></radialGradient><radialGradient id="radial-gradient-3" cx="75.93" cy="93.78" r="10.64" gradientTransform="translate(0 60.41) scale(1 0.36)" gradientUnits="userSpaceOnUse"><stop offset="0" stop-color="#fff"/><stop offset="0.26" stop-color="#fcfcfe"/><stop offset="0.47" stop-color="#f2f3f9"/><stop offset="0.66" stop-color="#e1e3f2"/><stop offset="0.84" stop-color="#c9cde8"/><stop offset="1" stop-color="#aeb4dc"/></radialGradient><radialGradient id="radial-gradient-4" cx="75.79" cy="52.82" r="25.88" gradientUnits="userSpaceOnUse"><stop offset="0" stop-color="#fff"/><stop offset="0.28" stop-color="#fcfcfe"/><stop offset="0.51" stop-color="#f2f4fa"/><stop offset="0.71" stop-color="#e1e5f4"/><stop offset="0.91" stop-color="#c9d1eb"/><stop offset="1" stop-color="#bcc6e6"/></radialGradient><radialGradient id="radial-gradient-5" cx="76" cy="84.42" r="4.75" gradientTransform="translate(0 -24.07) scale(1 1.29)" xlink:href="#radial-gradient"/><linearGradient id="linear-gradient-3" x1="68.26" y1="74.81" x2="96.09" y2="53.16" gradientUnits="userSpaceOnUse"><stop offset="0" stop-color="#fff" stop-opacity="0"/><stop offset="0.22" stop-color="#dadce7" stop-opacity="0.17"/><stop offset="0.65" stop-color="#7a82aa" stop-opacity="0.62"/><stop offset="1" stop-color="#283475"/></linearGradient><linearGradient id="linear-gradient-4" x1="65.28" y1="76.08" x2="65.28" y2="42.24" gradientUnits="userSpaceOnUse"><stop offset="0" stop-color="#fff" stop-opacity="0"/><stop offset="0.04" stop-color="#ecedf3" stop-opacity="0.09"/><stop offset="0.15" stop-color="#b0b4cc" stop-opacity="0.37"/><stop offset="0.27" stop-color="#7e85ac" stop-opacity="0.6"/><stop offset="0.4" stop-color="#586194" stop-opacity="0.78"/><stop offset="0.55" stop-color="#3d4882" stop-opacity="0.9"/><stop offset="0.72" stop-color="#2d3978" stop-opacity="0.98"/><stop offset="1" stop-color="#283475"/></linearGradient><linearGradient id="linear-gradient-5" x1="76" y1="34.21" x2="76" y2="20.99" gradientUnits="userSpaceOnUse"><stop offset="0" stop-color="#283475"/><stop offset="0.08" stop-color="#586194"/><stop offset="0.16" stop-color="#848bb0"/><stop offset="0.25" stop-color="#aaafc8"/><stop offset="0.34" stop-color="#c9ccdc"/><stop offset="0.43" stop-color="#e1e2ec"/><stop offset="0.53" stop-color="#f2f2f6"/><stop offset="0.64" stop-color="#fcfcfd"/><stop offset="0.77" stop-color="#fff"/></linearGradient><linearGradient id="linear-gradient-6" x1="63.82" y1="33.44" x2="63.82" y2="24.63" xlink:href="#linear-gradient-5"/><linearGradient id="linear-gradient-7" x1="88.18" y1="33.44" x2="88.18" y2="24.63" xlink:href="#linear-gradient-5"/><radialGradient id="radial-gradient-6" cx="76" cy="58.74" r="41.36" gradientUnits="userSpaceOnUse"><stop offset="0.01" stop-color="#fff"/><stop offset="0.05" stop-color="#fff" stop-opacity="0.91"/><stop offset="0.16" stop-color="#fff" stop-opacity="0.7"/><stop offset="0.26" stop-color="#fff" stop-opacity="0.51"/><stop offset="0.38" stop-color="#fff" stop-opacity="0.35"/><stop offset="0.49" stop-color="#fff" stop-opacity="0.23"/><stop offset="0.61" stop-color="#fff" stop-opacity="0.13"/><stop offset="0.73" stop-color="#fff" stop-opacity="0.06"/><stop offset="0.85" stop-color="#fff" stop-opacity="0.01"/><stop offset="1" stop-color="#fff" stop-opacity="0"/></radialGradient></defs><g class="cls-1"><g id="Calque_1" data-name="Calque 1"><circle class="cls-2" cx="76" cy="76" r="74.49"/><circle class="cls-3" cx="76" cy="76" r="67.56" transform="translate(-31.48 76) rotate(-45)"/><circle class="cls-4" cx="76" cy="76" r="61.41" transform="translate(-10.75 139.45) rotate(-81.18)"/><circle class="cls-5" cx="76" cy="76" r="75" transform="translate(-10.79 139.4) rotate(-81.15)"/><g class="cls-6"><rect class="cls-4" x="52.3" y="36.22" width="48.86" height="4.82" rx="0.5"/><path class="cls-4" d="M96.13,46h13.46s1.61,28.86-22.84,31.22l.83-1.85S105.66,74,105.66,49.78H95.51Z"/><path class="cls-4" d="M57.32,46H43.87S42.25,74.86,66.71,77.22l-.83-1.85S47.8,74,47.8,49.78H58Z"/><rect class="cls-4" x="72.38" y="85.72" width="8.69" height="6.68"/><path class="cls-4" d="M83.25,91.41h-13a4.68,4.68,0,0,0-4.68,4.67H87.92A4.67,4.67,0,0,0,83.25,91.41Z"/><path class="cls-4" d="M76.73,43H54.56c0,20.8,8.92,35.66,16.59,39.1H82.31C90,78.63,98.89,63.77,98.89,43Z"/><rect class="cls-4" x="70.11" y="84.01" width="13.24" height="2.28" rx="0.24"/><path class="cls-7" d="M97.18,43h-6.9c0,18.26-6.29,32.33-13.11,39.1H80.6C88.26,78.63,97.18,63.77,97.18,43Z"/><path class="cls-8" d="M65.2,43H60.4c0,16.28,5.53,28.6,11.21,33.83C68,68.87,65.2,57.15,65.2,43Z"/></g><rect class="cls-9" x="51.57" y="35.49" width="48.86" height="4.82" rx="0.5"/><path class="cls-10" d="M95.41,45.27h13.45S110.48,74.13,86,76.5l.83-1.86s18.08-1.33,18.08-25.59H94.78Z"/><path class="cls-11" d="M56.59,45.27H43.14S41.52,74.13,66,76.5l-.83-1.86S47.07,73.31,47.07,49.05H57.22Z"/><rect class="cls-12" x="71.66" y="85" width="8.69" height="6.68"/><path class="cls-13" d="M82.52,90.68h-13a4.68,4.68,0,0,0-4.68,4.68H87.2A4.68,4.68,0,0,0,82.52,90.68Z"/><path class="cls-14" d="M76,42.24H53.84c0,20.8,8.91,35.66,16.58,39.11H81.58C89.25,77.9,98.16,63,98.16,42.24Z"/><rect class="cls-15" x="69.38" y="83.28" width="13.24" height="2.28" rx="0.24"/><path class="cls-16" d="M96.45,42.24h-6.9c0,18.26-6.29,32.33-13.11,39.11h3.43C87.54,77.9,96.45,63,96.45,42.24Z"/><path class="cls-17" d="M64.47,42.24h-4.8c0,16.28,5.53,28.6,11.21,33.84C67.24,68.15,64.47,56.42,64.47,42.24Z"/><g class="cls-6"><polygon class="cls-4" points="76.49 22.64 77.77 25.77 81.14 26.02 78.56 28.21 79.36 31.49 76.49 29.72 73.61 31.49 74.41 28.21 71.83 26.02 75.2 25.77 76.49 22.64"/></g><polygon class="cls-18" points="76 22.16 77.28 25.28 80.65 25.54 78.08 27.72 78.88 31.01 76 29.23 73.12 31.01 73.92 27.72 71.35 25.54 74.72 25.28 76 22.16"/><g class="cls-6"><polygon class="cls-4" points="64.31 25.89 65.16 27.98 67.41 28.15 65.69 29.61 66.22 31.79 64.31 30.61 62.39 31.79 62.92 29.61 61.2 28.15 63.45 27.98 64.31 25.89"/><polygon class="cls-4" points="88.67 25.89 89.52 27.98 91.77 28.15 90.05 29.61 90.58 31.79 88.67 30.61 86.75 31.79 87.28 29.61 85.56 28.15 87.81 27.98 88.67 25.89"/></g><polygon class="cls-19" points="63.82 25.41 64.67 27.49 66.92 27.66 65.2 29.12 65.74 31.31 63.82 30.12 61.9 31.31 62.44 29.12 60.72 27.66 62.96 27.49 63.82 25.41"/><polygon class="cls-20" points="88.18 25.41 89.04 27.49 91.28 27.66 89.56 29.12 90.1 31.31 88.18 30.12 86.26 31.31 86.8 29.12 85.08 27.66 87.33 27.49 88.18 25.41"/><circle class="cls-21" cx="76" cy="58.74" r="41.36"/><path class="cls-22" d="M96,129.49a.71.71,0,0,0,.71-.72V115.18a.71.71,0,0,0-.71-.71H88.86v-9.94a.71.71,0,0,0-.71-.71H76.71v-2.44a.71.71,0,1,0-1.42,0v2.44H63.85a.71.71,0,0,0-.71.71v9.93H56a.71.71,0,0,0-.71.72v13.59a.71.71,0,1,0,1.42,0V115.9H71v12.87a.72.72,0,1,0,1.43,0V115.18a.71.71,0,0,0-.71-.71H64.57v-9.22H87.43v9.21H80.26a.71.71,0,0,0-.71.72v13.59a.72.72,0,1,0,1.43,0V115.9H95.32v12.87A.71.71,0,0,0,96,129.49Z"/></g></g></svg>